<?xml version="1.0" encoding="UTF-8"?><svg id="Calque_2"  width="30" height="30" xmlns="http://www.w3.org/2000/svg" viewBox="0 0 78.33 78.33"><defs><style>.cls-1{fill:#90d4d8;}</style></defs><g id="Calque_1-2"><path id="Rectangle_324" class="cls-1" d="m39.17,0h0c21.63,0,39.17,17.54,39.17,39.17h0c0,21.63-17.54,39.17-39.17,39.17h0C17.54,78.33,0,60.8,0,39.17h0C0,17.54,17.54,0,39.17,0Z"/><path d="m50.66,11.91c-.82-.18-1.61.33-1.79,1.13l-6.99,30.99c-.33,1.48-1.1,2.82-2.11,3.68-.9.76-1.88,1.07-2.78.87-1.99-.45-3.12-3.29-2.46-6.21l6.99-30.99c.18-.81-.33-1.61-1.13-1.79-.82-.19-1.61.33-1.79,1.13l-6.99,30.99c-.89,3.95.57,7.75,3.31,9.25l-1.73,7.65c-2.04.19-3.83,1.65-4.31,3.76-.29,1.27-.06,2.58.63,3.68.7,1.1,1.78,1.86,3.05,2.15.36.08.72.12,1.07.12,2.23,0,4.25-1.54,4.75-3.8.29-1.27.06-2.58-.63-3.68-.42-.66-.99-1.18-1.64-1.57l1.73-7.67c1.35-.08,2.7-.62,3.87-1.61,1.51-1.29,2.61-3.17,3.09-5.3l6.99-30.99c.18-.81-.33-1.61-1.13-1.79Zm-15.19,51.96c-.23,1.01-1.23,1.64-2.24,1.42-.49-.11-.91-.4-1.17-.83-.27-.42-.35-.93-.24-1.42.11-.49.4-.9.83-1.17.3-.19.65-.29,1-.29.07,0,.15.02.22.02.06.02.12.05.18.06.07.02.13.02.2.02.41.14.75.4.99.77.27.42.35.93.24,1.41Z"/></g></svg>