<?xml version="1.0" encoding="utf-8"?>
<!-- Generator: Adobe Illustrator 27.8.1, SVG Export Plug-In . SVG Version: 6.00 Build 0)  -->
<svg version="1.1" id="Calque_2_00000112625456041288256780000004621989276303275157_"
	 xmlns="http://www.w3.org/2000/svg" xmlns:xlink="http://www.w3.org/1999/xlink" x="0px" y="0px" viewBox="0 0 30 30"
	 style="enable-background:new 0 0 30 30;" xml:space="preserve">
<style type="text/css">
	.st0{fill:#EFC3FF;}
</style>
<g id="Calque_1-2">
	<path id="Rectangle_324" class="st0" d="M15,0L15,0c8.3,0,15,6.7,15,15l0,0c0,8.3-6.7,15-15,15l0,0C6.7,30,0,23.3,0,15l0,0
		C0,6.7,6.7,0,15,0z"/>
	<g>
		<path d="M15.8,12C15.8,12,15.8,12,15.8,12c0.4,0.4,0.8,0.5,1.3,0.5c0.5,0,0.9-0.2,1.3-0.5l2-2C20.8,9.6,21,9.1,21,8.6
			c0-0.5-0.2-1-0.5-1.3l-2.6-2.6C17.2,4,16,4,15.3,4.7l-2,2c-0.3,0.3-0.5,0.8-0.5,1.3c0,0.5,0.2,1,0.5,1.3l0.3,0.3l-8.1,8.1
			c0,0,0,0,0,0c-0.6,0.6-0.6,1.5,0,2c0.3,0.3,0.6,0.4,1,0.4c0.4,0,0.7-0.1,1-0.4l8.1-8.1L15.8,12z M6.6,19c-0.1,0.1-0.1,0.1-0.2,0.1
			c0,0-0.1,0-0.2-0.1c-0.1-0.1-0.1-0.3,0-0.4l8.1-8.1l0.4,0.4L6.6,19z M14.1,7.6l2-2c0.3-0.3,0.7-0.3,0.9,0l2.6,2.6
			c0.1,0.1,0.2,0.3,0.2,0.5S19.8,9,19.6,9.1l-2,2c-0.3,0.3-0.7,0.3-0.9,0l-2.6-2.6c-0.1-0.1-0.2-0.3-0.2-0.5
			C13.9,7.9,14,7.7,14.1,7.6z"/>
		<path d="M25,16.5l-1.7-3.3c-0.2-0.4-0.6-0.8-1.1-0.9c-0.5-0.1-1-0.1-1.4,0.1l-2.5,1.3c-0.9,0.5-1.2,1.6-0.8,2.5l0.2,0.4L7.5,22
			c-0.3,0.2-0.6,0.5-0.7,0.8c-0.1,0.4-0.1,0.8,0.1,1.1c0.2,0.3,0.5,0.6,0.8,0.7c0.1,0,0.3,0.1,0.4,0.1c0.2,0,0.5-0.1,0.7-0.2
			l10.2-5.3l0.2,0.3c0.2,0.4,0.6,0.8,1.1,0.9c0.2,0.1,0.4,0.1,0.6,0.1c0.3,0,0.6-0.1,0.8-0.2l2.5-1.3c0.4-0.2,0.8-0.6,0.9-1.1
			C25.3,17.4,25.3,16.9,25,16.5z M8.3,23.5c-0.1,0-0.2,0-0.2,0c0,0-0.1,0-0.2-0.1c0-0.1,0-0.2,0-0.2c0,0,0-0.1,0.1-0.2c0,0,0,0,0,0
			l10.2-5.3l0.2,0.5L8.3,23.5z M24,17.6c-0.1,0.2-0.2,0.3-0.3,0.4l-2.5,1.3c-0.2,0.1-0.3,0.1-0.5,0c-0.2-0.1-0.3-0.2-0.4-0.3
			l-1.7-3.3c-0.2-0.3,0-0.7,0.3-0.9l2.5-1.3c0.1,0,0.2-0.1,0.3-0.1c0.1,0,0.1,0,0.2,0c0.2,0.1,0.3,0.2,0.4,0.3l1.7,3.3
			C24.1,17.2,24.1,17.4,24,17.6z"/>
	</g>
</g>
</svg>
