<?xml version="1.0" encoding="utf-8"?>
<!-- Generator: Adobe Illustrator 27.8.1, SVG Export Plug-In . SVG Version: 6.00 Build 0)  -->
<svg version="1.1" id="Calque_2_00000098208379280090609320000016825309557046065817_"
	 xmlns="http://www.w3.org/2000/svg" xmlns:xlink="http://www.w3.org/1999/xlink" x="0px" y="0px" viewBox="0 0 30 30"
	 style="enable-background:new 0 0 30 30;" xml:space="preserve">
<style type="text/css">
	.st0{fill-rule:evenodd;clip-rule:evenodd;fill:#1D262D;}
</style>
<path class="st0" d="M13,3.6h15.2c0.9,0,1.6,0.7,1.6,1.6s-0.7,1.6-1.6,1.6H13C12.4,8.7,10.6,10,8.5,10S4.6,8.7,3.9,6.8H1.6
	C0.7,6.8,0,6.1,0,5.2s0.7-1.6,1.6-1.6h2.3c0.7-1.9,2.5-3.2,4.6-3.2S12.4,1.7,13,3.6z M6.8,5.2c0,0.9,0.7,1.6,1.6,1.6
	s1.6-0.7,1.6-1.6S9.3,3.6,8.5,3.6S6.8,4.3,6.8,5.2z M13,21.7h15.2c0.9,0,1.6,0.7,1.6,1.6c0,0.9-0.7,1.6-1.6,1.6H13
	c-0.7,1.9-2.5,3.2-4.6,3.2s-3.9-1.3-4.6-3.2H1.6c-0.9,0-1.6-0.7-1.6-1.6c0-0.9,0.7-1.6,1.6-1.6h2.3c0.7-1.9,2.5-3.2,4.6-3.2
	S12.4,19.8,13,21.7z M6.8,23.3c0,0.9,0.7,1.6,1.6,1.6s1.6-0.7,1.6-1.6c0-0.9-0.7-1.6-1.6-1.6S6.8,22.4,6.8,23.3z M28.2,12.6h-2.3
	c-0.7-1.9-2.5-3.2-4.6-3.2s-3.9,1.3-4.6,3.2H1.6c-0.9,0-1.6,0.7-1.6,1.6c0,0.9,0.7,1.6,1.6,1.6h15.2c0.7,1.9,2.5,3.2,4.6,3.2
	s3.9-1.3,4.6-3.2h2.3c0.9,0,1.6-0.7,1.6-1.6C29.8,13.3,29.1,12.6,28.2,12.6z M21.4,15.9c-0.9,0-1.6-0.7-1.6-1.6
	c0-0.9,0.7-1.6,1.6-1.6c0.9,0,1.6,0.7,1.6,1.6C23,15.1,22.2,15.9,21.4,15.9z"/>
</svg>
