<?xml version="1.0" encoding="utf-8"?>
<!-- Generator: Adobe Illustrator 27.7.0, SVG Export Plug-In . SVG Version: 6.00 Build 0)  -->
<svg version="1.1" id="Calque_2_00000029751455468786172550000010971706240809740973_"
	 xmlns="http://www.w3.org/2000/svg" xmlns:xlink="http://www.w3.org/1999/xlink" x="0px" y="0px" viewBox="0 0 30 30"
	 style="enable-background:new 0 0 30 30;" xml:space="preserve">
<g id="Calque_1-2">
	<path d="M21.7,18c-0.2-0.6-0.9-0.9-1.6-0.7c0,0,0,0,0,0c0,0,0,0,0,0c-0.1,0-0.1,0-0.2,0.1c-0.1,0-0.1,0.1-0.1,0.1
		c-0.6,0.2-1.3-0.1-1.6-0.8c-0.3-0.7,0-1.4,0.6-1.7l0.1,0c0,0,0,0,0.1,0c0.4-0.1,0.6-0.4,0.7-0.8c0.1-0.4,0-0.8-0.3-1.1
		c-1.7-1.8-3.8-2.6-5.7-2.1l-1.3-3.4l0.2-0.1C13,7.1,13.1,6.8,13,6.4c-0.1-0.3-0.5-0.5-0.8-0.4L12,6.2l-0.2-0.4l0.2-0.1
		c0.3-0.1,0.5-0.5,0.4-0.8c-0.1-0.3-0.5-0.5-0.8-0.4l-0.2,0.1l-0.3-0.7c-0.1-0.3-0.5-0.5-0.8-0.4C10,3.7,9.9,4.1,10,4.4l0.3,0.7
		L10,5.2C9.7,5.3,9.5,5.6,9.7,6c0.1,0.3,0.5,0.5,0.8,0.4l0.2-0.1l0.2,0.4l-0.2,0.1c-0.3,0.1-0.5,0.5-0.4,0.8C10.4,7.8,10.7,8,11,7.9
		l0.2-0.1l1.3,3.4c-1.7,0.9-2.8,2.9-2.8,5.4c0,0.4,0.2,0.8,0.5,1c0.3,0.2,0.7,0.3,1.1,0.1c0,0,0,0,0.1,0l0.1,0
		c0.6-0.2,1.3,0.1,1.6,0.8c0.3,0.7,0,1.5-0.6,1.7c0,0-0.1,0-0.2,0c-0.1,0-0.1,0-0.2,0.1c-0.3,0.1-0.6,0.4-0.7,0.7
		c-0.2,0.4-0.1,0.8,0.1,1.2c1.8,2.5,4.6,3.7,6.9,2.8c2.3-0.9,3.7-3.5,3.3-6.6C21.8,18.2,21.8,18.1,21.7,18L21.7,18z M18,23.8
		c-1.9,0.7-4.1-0.3-5.5-2.3c0.1,0,0.2-0.1,0.4-0.1c1.2-0.5,1.8-1.9,1.3-3.3c-0.5-1.3-1.9-2-3.2-1.5c0,0-0.1,0-0.1,0
		c0-1.9,0.8-3.5,2.1-4.3l1.7,4.6c0.1,0.3,0.5,0.5,0.8,0.4c0.3-0.1,0.5-0.5,0.4-0.8l-1.7-4.6c1.5-0.3,3.1,0.4,4.4,1.8
		c0,0-0.1,0-0.1,0c-1.2,0.5-1.8,1.9-1.3,3.3c0.5,1.3,1.9,2,3.2,1.5c0.1,0,0.2-0.1,0.3-0.2C20.9,20.9,19.9,23.1,18,23.8L18,23.8z"/>
	<path d="M17.7,19.1l-2.5,0.9c-0.3,0.1-0.5,0.5-0.4,0.8c0.1,0.3,0.5,0.5,0.8,0.4l2.5-0.9c0.3-0.1,0.5-0.5,0.4-0.8S18,19,17.7,19.1z"
		/>
</g>
</svg>
