<?xml version="1.0" encoding="utf-8"?>
<!-- Generator: Adobe Illustrator 27.7.0, SVG Export Plug-In . SVG Version: 6.00 Build 0)  -->
<svg version="1.1" id="Calque_2_00000116955336485082709490000012362322490545078709_"
	 xmlns="http://www.w3.org/2000/svg" xmlns:xlink="http://www.w3.org/1999/xlink" x="0px" y="0px" viewBox="0 0 30 30"
	 style="enable-background:new 0 0 30 30;" xml:space="preserve">
<g id="Calque_1-2">
	<path d="M19.4,4.6c-0.3-0.1-0.6,0.1-0.7,0.4L16,16.9c-0.1,0.6-0.4,1.1-0.8,1.4c-0.3,0.3-0.7,0.4-1.1,0.3c-0.8-0.2-1.2-1.3-0.9-2.4
		l2.7-11.9C16,4,15.8,3.7,15.5,3.7c-0.3-0.1-0.6,0.1-0.7,0.4L12.1,16c-0.3,1.5,0.2,3,1.3,3.5l-0.7,2.9c-0.8,0.1-1.5,0.6-1.7,1.4
		c-0.1,0.5,0,1,0.2,1.4c0.3,0.4,0.7,0.7,1.2,0.8c0.1,0,0.3,0,0.4,0c0.9,0,1.6-0.6,1.8-1.5c0.1-0.5,0-1-0.2-1.4
		c-0.2-0.3-0.4-0.5-0.6-0.6l0.7-2.9c0.5,0,1-0.2,1.5-0.6c0.6-0.5,1-1.2,1.2-2l2.7-11.9C19.9,4.9,19.7,4.6,19.4,4.6z M13.6,24.5
		c-0.1,0.4-0.5,0.6-0.9,0.5c-0.2,0-0.3-0.2-0.4-0.3c-0.1-0.2-0.1-0.4-0.1-0.5s0.2-0.3,0.3-0.4c0.1-0.1,0.2-0.1,0.4-0.1
		c0,0,0.1,0,0.1,0c0,0,0,0,0.1,0c0,0,0,0,0.1,0c0.2,0.1,0.3,0.2,0.4,0.3C13.6,24.1,13.6,24.3,13.6,24.5L13.6,24.5z"/>
</g>
</svg>
