<?xml version="1.0" encoding="utf-8"?>
<!-- Generator: Adobe Illustrator 27.7.0, SVG Export Plug-In . SVG Version: 6.00 Build 0)  -->
<svg version="1.1" id="Calque_2_00000114756015616513794650000015159549487104471962_"
	 xmlns="http://www.w3.org/2000/svg" xmlns:xlink="http://www.w3.org/1999/xlink" x="0px" y="0px" viewBox="0 0 78.3 78.3"
	 style="enable-background:new 0 0 78.3 78.3;" xml:space="preserve">
<g id="Calque_1-2">
	<path d="M46.3,48.4c-1.5-1.9-2.8-3.8-2.8-7c0-5.7,1.4-7.3,1.4-7.3l0,0c0.3-0.3,0.5-0.7,0.5-1.2v-3.2c0-0.8-0.7-1.5-1.5-1.5h-0.7
		v-6.9h3.4c1.2,0,2.2-1.1,2.2-2.4v-3.4c0-1.2-0.9-2.2-2-2.3l-1.8-0.9c-0.3-0.2-0.7-0.1-1,0.1L41.9,14l-2.2-1.6
		c-0.3-0.2-0.8-0.2-1.2,0L36.3,14l-2.2-1.6c-0.3-0.2-0.7-0.2-1.1-0.1l-1.6,0.9c-1.1,0.1-2,1.1-2,2.3V19c0,1.3,1,2.4,2.2,2.4h3.4v6.9
		h-0.7c-0.8,0-1.5,0.7-1.5,1.5v3.2c0,0.5,0.1,0.8,0.5,1.1c0,0,1.4,1.6,1.4,7.4c0,3.3-1.4,5.1-2.8,7c-1.3,1.8-2.7,3.6-2.7,6.3
		c0,5.6,0,11.9,9.9,11.9S49,60.3,49,54.7C49,52,47.7,50.2,46.3,48.4L46.3,48.4z M31.5,19v-3.4c0-0.2,0.1-0.4,0.2-0.4
		c0.2,0,0.3,0,0.5-0.1l1.3-0.7l2.2,1.6c0.3,0.2,0.8,0.2,1.2,0l2.2-1.6l2.2,1.6c0.3,0.2,0.8,0.2,1.2,0l2.3-1.6l1.4,0.7
		c0.1,0.1,0.3,0.1,0.5,0.1c0.1,0,0.2,0.2,0.2,0.4V19c0,0.2-0.1,0.4-0.2,0.4H31.8C31.7,19.3,31.5,19.2,31.5,19L31.5,19z M37.1,21.4
		h4.1v6.8h-4.1V21.4z M39.2,63.6c-6.9,0-6.9-3-6.9-8.9c0-1.7,0.9-2.9,2.1-4.5c1.5-2,3.5-4.6,3.5-8.8c0-5.5-1.2-8-1.9-9v-1.2h6.4v1.2
		c-0.8,1-1.9,3.6-1.9,9c0,4.3,1.9,6.8,3.5,8.8c1.2,1.6,2.1,2.8,2.1,4.5C46,60.6,46,63.6,39.2,63.6L39.2,63.6z"/>
</g>
</svg>
