<?xml version="1.0" encoding="UTF-8"?><svg id="Calque_2"  width="30" height="30" xmlns="http://www.w3.org/2000/svg" viewBox="0 0 78.33 78.33"><defs><style>.cls-1{stroke:#000;stroke-miterlimit:10;stroke-width:.5px;}.cls-2{fill:#a9bed8;}</style></defs><g id="Calque_1-2"><path id="Rectangle_324" class="cls-2" d="m39.17,0h0c21.63,0,39.17,17.54,39.17,39.17h0c0,21.63-17.54,39.17-39.17,39.17h0C17.54,78.33,0,60.8,0,39.17h0C0,17.54,17.54,0,39.17,0Z"/><path class="cls-1" d="m42.81,56.95v1.78c.2,0,.4,0,.59,0,1.82,0,3.63,0,5.45,0,2.14,0,3.74,1.53,3.73,3.57,0,2.01-1.6,3.54-3.71,3.54-5.83,0-11.67,0-17.5,0-2.1,0-3.69-1.55-3.68-3.56,0-2.01,1.59-3.54,3.7-3.55,2,0,4,0,6.04,0v-1.78c-.79,0-1.58.05-2.36-.02-.37-.03-.8-.19-1.07-.44-1.4-1.34-2.77-2.73-4.14-4.11-2-2.02-2-4.82-.02-6.84.16-.16.31-.31.47-.47,1.37-1.37,1.35-3.39-.07-4.75-.58-.56-1.13-1.16-1.71-1.73-.25-.24-.52-.33-.87-.32-1.13.02-2.26.01-3.39,0-1.67,0-2.8-1.13-2.8-2.79,0-1.73-.01-3.47,0-5.2.03-4.88,3.6-9.11,8.45-9.69.37-.04.51-.16.59-.53.63-2.85,3.04-4.83,5.95-4.91,2.14-.06,3.99-.82,5.58-2.26.25-.22.65-.39.98-.39,2.81-.03,5.63-.03,8.45,0,.34,0,.76.19,1.02.43,1.13,1.07,2.22,2.18,3.31,3.29,1.44,1.46,1.45,3.49.02,4.96-.65.66-1.32,1.3-1.95,1.98-.15.16-.22.46-.17.67.5,2.12,1.08,4.22,1.55,6.35.65,3,.41,6-.26,8.98-.35,1.59-.74,3.17-1.14,4.75-.44,1.73-.39,3.49-.35,5.25.03,1.39-.48,2.53-1.56,3.47-1.31,1.13-2.57,2.31-3.65,3.66-.37.46-.76.68-1.31.67-1.37-.02-2.73,0-4.15,0Zm7.62-5.31c.5-.44,1.41-1.82,1.27-3.08-.02-.2,0-.41,0-.61-.06-1.79.15-3.54.64-5.27.36-1.28.62-2.6.95-4.02-2.74,2.06-5.28,3.19-8.55,3.24-.33,0-.6-.26-.6-.6v-.59c0-.32.25-.58.57-.59h0c3.49-.08,6.08-1.43,8.6-3.82.31-.29.49-.61.47-1.01-.08-1.57-.02-3.16-.3-4.69-.44-2.36-1.1-4.68-1.7-7.01-.13-.52-.01-.89.36-1.25.81-.79,1.61-1.59,2.4-2.4.77-.78.76-1.72-.02-2.5-.96-.97-1.93-1.95-2.91-2.9h0c-.28-.27-.76-.13-.83.26-.58,3.15-2.44,4.67-5.69,4.8-1.33.06-2.47.58-3.42,1.52-.97.96-1.95,1.92-2.9,2.91-.15.15-.23.45-.18.66.44,1.89.92,3.77,1.39,5.66h0c.08.33-.12.66-.44.74l-.53.13c-.33.08-.66-.12-.75-.45-.46-1.81-.91-3.59-1.36-5.4-1.38.56-2.7.63-4,0-1.3-.62-2.07-1.69-2.44-3.04-3.25.21-6.26,2.8-6.96,6.07-.52,2.41-.17,4.87-.21,7.31,0,.43.33.74.76.75,1.22.03,2.44.01,3.68.01.14-2.08-.13-4.09-.64-6.07-.11-.43.13-.88.56-1.01h.02c.47-.15.97.14,1.07.62.32,1.53.89,4.63.78,6.41-.03.45.07.76.47,1.06.47.36.87.79,1.24,1.25.28.35.58.45.99.44,2.39-.09,4.2-1.17,5.47-3.17.21-.33.38-.69.55-1.07.13-.28.44-.42.74-.33l.51.16c.35.11.53.49.39.82-1.2,2.8-3.2,4.54-5.99,5.18-.51.12-.86.56-.86,1.08,0,.56.01,1.11-.03,1.66-.03.41.11.6.41.8,2.35,1.51,4.53,1.72,6.88-.01.19-.14.37-.29.55-.44.33-.29.83-.28,1.16.01h.01c.39.36.39.98,0,1.33-1.1.97-1.58,1.31-3.01,1.68-2.44.64-4.68.12-6.74-1.21-.4.39-.76.73-1.11,1.09-1.31,1.32-1.31,3.01,0,4.33,1.24,1.25,2.48,2.5,3.74,3.72.19.18.55.33.81.33,3.43.02,6.85.01,10.28.01h.32s3.67-3.09,4.17-3.53Zm-10.27,8.86c-2.94,0-5.89,0-8.83,0-1.08,0-1.87.77-1.86,1.79,0,.99.79,1.76,1.83,1.76,5.89,0,11.78,0,17.67,0,.35,0,.74-.13,1.04-.31.67-.4.94-1.21.72-1.93-.24-.79-.89-1.29-1.74-1.3-2.94,0-5.89,0-8.83,0Zm8.84-46.24c-1.91,0-3.77,0-5.64.01-.16,0-.34.12-.47.23-1.87,1.58-4.02,2.37-6.46,2.43-2.24.06-4.08,1.82-4.28,4.05-.14,1.52.79,2.83,2.24,3.02,1.2.16,2.21-.34,3.05-1.17.82-.8,1.64-1.61,2.42-2.45,1.57-1.7,3.46-2.57,5.79-2.59,1.86,0,3.35-1.62,3.35-3.54Zm-9.73,42.71v1.72h1.71v-1.72h-1.71Z"/><path class="cls-1" d="m40.15,32.91l.02-.03c.21-.38.66-.55,1.07-.4,2.53.93,4.89.57,6.76-1.56,1.78-2.03,1.76-4.32.67-6.63-.19-.4-.05-.87.32-1.11h.01c.42-.28.98-.15,1.22.28,1.28,2.23,1.39,5.76-.58,8.31-2.09,2.71-6.08,3.66-9.07,2.35-.47-.21-.67-.77-.42-1.22Z"/><rect x="44.42" y="28.05" width="1.73" height="1.71" rx=".85" ry=".85"/><rect x="32.95" y="34.15" width="1.71" height="1.72" rx=".86" ry=".86"/><rect x="39.7" y="49.19" width="1.72" height="1.71" rx=".85" ry=".85"/></g></svg>