<?xml version="1.0" encoding="UTF-8"?><svg id="Calque_2" xmlns="http://www.w3.org/2000/svg" viewBox="0 0 78.33 78.33"><defs><style>.cls-1{fill:#fee8be;}</style></defs><g id="Calque_1-2"><path id="Rectangle_324" class="cls-1" d="m39.17,0h0c21.63,0,39.17,17.54,39.17,39.17h0c0,21.63-17.54,39.17-39.17,39.17h0C17.54,78.33,0,60.8,0,39.17h0C0,17.54,17.54,0,39.17,0Z"/><path d="m46.32,48.41c-1.46-1.94-2.84-3.78-2.84-7.03,0-5.72,1.38-7.31,1.37-7.31h0c.35-.28.55-.71.55-1.16v-3.21c0-.83-.67-1.5-1.5-1.5h-.69v-6.87h3.39c1.24,0,2.24-1.06,2.24-2.36v-3.38c0-1.2-.86-2.2-1.97-2.34l-1.77-.91c-.33-.17-.74-.14-1.04.08l-2.18,1.57-2.18-1.57c-.35-.25-.82-.25-1.17,0l-2.18,1.57-2.18-1.57c-.31-.23-.72-.25-1.06-.07l-1.65.9c-1.1.15-1.95,1.14-1.95,2.34v3.38c0,1.3,1.01,2.36,2.24,2.36h3.39v6.87h-.69c-.83,0-1.5.67-1.5,1.5v3.21c0,.45.13.81.48,1.1.01.02,1.43,1.57,1.43,7.37,0,3.26-1.38,5.09-2.84,7.03-1.33,1.77-2.7,3.59-2.7,6.29,0,5.58,0,11.9,9.86,11.9s9.85-6.32,9.85-11.9c0-2.7-1.37-4.52-2.7-6.29Zm-14.81-29.44v-3.38c0-.2.13-.36.24-.36.17,0,.33-.04.48-.12l1.29-.7,2.25,1.63c.35.25.82.25,1.17,0l2.18-1.57,2.18,1.57c.35.25.82.25,1.17,0l2.27-1.64,1.41.72c.14.07.3.11.46.11.11,0,.24.16.24.36v3.38c0,.2-.13.36-.24.36h-14.84c-.11,0-.24-.16-.24-.36Zm5.63,2.39h4.07v6.83h-4.07v-6.83Zm2.03,42.24c-6.86,0-6.86-2.98-6.86-8.9,0-1.69.93-2.92,2.1-4.48,1.54-2.04,3.45-4.58,3.45-8.84,0-5.45-1.16-7.96-1.91-9.01v-1.17h6.44v1.17c-.75,1.05-1.91,3.56-1.91,9.01,0,4.26,1.91,6.8,3.45,8.84,1.17,1.56,2.1,2.79,2.1,4.48,0,5.93,0,8.9-6.85,8.9Z"/></g></svg>