<?xml version="1.0" encoding="UTF-8"?><svg id="Calque_2" xmlns="http://www.w3.org/2000/svg" viewBox="0 0 78.33 78.33" width="30" height="30"><defs><style>.cls-1{fill:#6da7c0;}.cls-2{fill-rule:evenodd;}</style></defs><g id="Calque_1-2"><path id="Rectangle_324" class="cls-1" d="m39.17,0h0c21.63,0,39.17,17.54,39.17,39.17h0c0,21.63-17.54,39.17-39.17,39.17h0C17.54,78.33,0,60.8,0,39.17h0C0,17.54,17.54,0,39.17,0Z"/><polygon points="73.02 51.04 73.02 50.94 72.92 51.04 73.02 51.04"/><path d="m53.08,16.52h-21.52c-.3,0-.61.15-.84.38l-10.96,11.11c0,.08-.08.08-.08.08-.08.08-.08.15-.15.23-.08.15-.08.3-.08.46v31.57c0,.81.66,1.47,1.47,1.47h17.34c.67,0,.99-.8.52-1.27-.29-.28-.61-.6-1.12-.95-.06-.04-.12-.06-.19-.06h-15.33c-.18,0-.32-.15-.32-.32v-28.89c0-.18.15-.32.32-.32h9.32c.81,0,1.47-.66,1.47-1.47v-9.32c0-.18.15-.32.32-.32h18.61c.18,0,.32.15.32.32v10.97c0,.14.09.26.23.3.57.18,1.13.39,1.68.62.21.09.45-.06.45-.29v-12.82c0-.81-.66-1.47-1.47-1.47Zm-22.84,11.11h-6.06c-.29,0-.43-.35-.23-.55l6.06-6.19c.2-.21.56-.06.56.23v6.19c0,.18-.15.32-.32.32Z"/><path d="m32.34,53.83c.39.7.82,1.37,1.3,2,.12.16.01.39-.19.39h-7.71c-.81,0-1.46-.65-1.46-1.46v-19.17c0-.61.3-1.07.84-1.22.08-.08.15-.08.3-.08h9.36c.21,0,.32.26.17.41-.61.62-1.17,1.29-1.66,2-.04.06-.12.1-.19.1h-6.14c-.13,0-.24.11-.24.24v2.03c0,.13.11.24.24.24h4.47c.17,0,.28.17.22.33-.28.65-.52,1.32-.71,2-.03.1-.12.17-.23.17h-3.75c-.13,0-.24.11-.24.24v2.18c0,.13.11.24.24.24h3.2c.14,0,.25.12.24.26-.04.42-.05.84-.05,1.27,0,.33,0,.65.03.98h-3.49c-.13,0-.24.11-.24.24v1.65c0,.13.11.24.24.24h3.57c.11,0,.21.08.23.19.14.68.32,1.36.54,2.01.05.16-.06.32-.22.32h-4.04c-.13,0-.24.11-.24.24v1.57c0,.13.11.24.24.24h5.17c.09,0,.17.05.21.12Z"/><path class="cls-2" d="m46.57,33.72c6.8,0,12.31,5.51,12.31,12.3s-5.51,12.3-12.31,12.3-12.3-5.51-12.3-12.3,5.51-12.3,12.3-12.3Zm0,3.01c-5.13,0-9.3,4.17-9.3,9.3s4.17,9.3,9.3,9.3,9.3-4.17,9.3-9.3-4.17-9.3-9.3-9.3Zm0,7.71c.88,0,1.59.71,1.59,1.59s-.71,1.59-1.59,1.59-1.59-.71-1.59-1.59.71-1.59,1.59-1.59Zm4.69,0c.88,0,1.59.71,1.59,1.59s-.71,1.59-1.59,1.59-1.59-.71-1.59-1.59.71-1.59,1.59-1.59Zm-9.37,0c.88,0,1.59.71,1.59,1.59s-.71,1.59-1.59,1.59-1.59-.71-1.59-1.59.71-1.59,1.59-1.59Z"/></g></svg>