<?xml version="1.0" encoding="UTF-8"?><svg id="Calque_2"  width="30" height="30" xmlns="http://www.w3.org/2000/svg" viewBox="0 0 52.5 52.51"><g id="Calque_1-2"><path d="m0,47.37c.26-1.4,1.16-2.37,2.16-3.32,4.16-3.93,8.3-7.89,12.45-11.83.22-.21.33-.35.13-.67-4.52-7.3-4.35-14.67,0-21.92C17.63,4.8,21.95,1.74,27.48.47,28.42.26,29.39.15,30.35,0c.99,0,1.98,0,2.97,0,1.06.17,2.13.29,3.18.52,8.08,1.79,14.34,8.41,15.7,16.58,1.95,11.76-5.89,21.13-15.88,23.4-5.48,1.24-10.62.35-15.34-2.71-.34-.22-.49-.1-.71.13-4.14,4.36-8.29,8.72-12.44,13.07-1.39,1.45-3.05,1.9-4.95,1.22-1.48-.53-2.33-1.67-2.74-3.16-.04-.15-.08-.29-.12-.44,0-.41,0-.82,0-1.23Zm32.01-8.41c10.13-.02,18.58-8.32,18.4-18.38-.21-11.52-8.56-18.42-18.45-18.4-10,.02-18.24,7.05-18.39,18.45-.13,10.08,8.33,18.35,18.44,18.33Zm-20.01-1.44c-3.09,2.94-6.2,5.89-9.28,8.87-.61.59-.83,1.37-.6,2.22.26.93.87,1.54,1.8,1.78.94.24,1.72-.1,2.36-.77,2.07-2.16,4.13-4.33,6.19-6.49.84-.89,1.69-1.78,2.5-2.64-1-.99-1.96-1.96-2.97-2.97Zm4.49,1.38c.81-.85,1.62-1.7,2.31-2.43-.93-.95-1.83-1.86-2.75-2.8-.77.74-1.63,1.55-2.45,2.34.98.98,1.92,1.92,2.89,2.89Z"/><path d="m46.28,21.53c-.88,0-1.71,0-2.55,0-.76,0-1.2-.39-1.19-1.03,0-.64.44-1.01,1.21-1.02.83,0,1.67,0,2.5,0-.19-6.24-5.56-12.77-13.23-13.27,0,.45,0,.91,0,1.36,0,.41,0,.82,0,1.23-.01.72-.39,1.15-1.02,1.16-.63,0-1.03-.43-1.03-1.14,0-.85,0-1.7,0-2.61-1.29.05-2.49.31-3.66.74-.67.24-1.32.56-1.98.84-.58.25-1.15.08-1.41-.43-.27-.53-.06-1.1.53-1.41,6.83-3.66,16-1.63,20.63,4.59,5.26,7.05,3.93,17.58-2.92,22.93-2.58,2.01-5.56,3-8.78,3.35-8.67.96-16.42-5.55-17.66-14.26-.47-3.34.09-6.53,1.67-9.52.28-.53.68-.77,1.14-.69.71.12,1.08.84.73,1.54-.63,1.26-1.11,2.57-1.36,3.95-.1.53-.15,1.07-.23,1.66.85,0,1.63,0,2.41,0,.91,0,1.36.33,1.37,1.01,0,.7-.45,1.04-1.39,1.04-.77,0-1.53,0-2.3,0,.09,6.14,5.58,12.84,13.21,13.25,0-.83,0-1.67,0-2.5,0-.8.38-1.24,1.05-1.23.64.01,1,.45,1,1.22,0,.83,0,1.67,0,2.5,6.6-.28,12.82-5.89,13.26-13.24Z"/><path d="m24.84,12.23c.12.04.34.1.54.19,3.22,1.37,6.44,2.74,9.64,4.15.35.16.72.5.88.85,1.43,3.25,2.82,6.51,4.21,9.78.33.77.05,1.43-.67,1.56-.23.04-.51-.02-.74-.11-3.28-1.39-6.56-2.79-9.83-4.22-.31-.14-.63-.45-.77-.76-1.44-3.28-2.84-6.58-4.25-9.87-.34-.79.11-1.55.99-1.55Zm1.85,2.98c.94,2.2,1.83,4.27,2.71,6.33,1.22-1.22,2.4-2.4,3.62-3.61-2.06-.88-4.13-1.77-6.33-2.71Zm10.59,10.59c-.95-2.2-1.83-4.27-2.7-6.29-1.22,1.22-2.39,2.39-3.59,3.59,2.02.87,4.09,1.75,6.29,2.7Z"/><path d="m22.14,9.61c.01.55-.47,1.05-1.03,1.05-.55,0-1-.45-1.02-1-.01-.55.42-1.02.97-1.05.55-.02,1.06.45,1.08,1Z"/></g></svg>