<?xml version="1.0" encoding="UTF-8"?><svg id="Calque_2"   width="30" height="30" xmlns="http://www.w3.org/2000/svg" viewBox="0 0 78.33 78.33"><defs><style>.cls-1{fill:#b3d6fd;}</style></defs><g id="Calque_1-2"><path id="Rectangle_324" class="cls-1" d="m39.17,0h0c21.63,0,39.17,17.54,39.17,39.17h0c0,21.63-17.54,39.17-39.17,39.17h0C17.54,78.33,0,60.8,0,39.17h0C0,17.54,17.54,0,39.17,0Z"/><path d="m20.4,53.15v-.67c0-11.38,0-17.36,0-28.74,0-3.6,2.33-6.32,5.87-6.84.32-.05.66-.05.99-.05,9.66,0,19.32,0,28.98,0,3.7,0,6.68,2.94,6.7,6.63.02,4.41,0,8.83,0,13.24,0,1.14-.68,1.81-1.82,1.81-2.52,0-5.04,0-7.56,0-.19,0-.38,0-.63,0v.64c0,6.92,0,8.42,0,15.34,0,4.1-2.88,6.98-6.99,6.98-7.9,0-15.81,0-23.71,0-3.56,0-6.3-2.4-6.79-5.93-.03-.22-.04-.45-.04-.68,0-1,.69-1.71,1.69-1.73,1.08-.01,2.15,0,3.31,0Zm30.09-32.97c-.27,0-.44,0-.61,0-7.51,0-15.01,0-22.52,0-2.23,0-3.62,1.38-3.62,3.6,0,11.4,0,17.39,0,28.79,0,.18,0,.37,0,.57.28,0,.49,0,.7,0,5.49,0,10.98,0,16.47,0,1.36,0,1.93.54,2.02,1.88.13,2.03,2.05,3.47,4.03,3.04,1.62-.35,2.63-1.68,2.63-3.46,0-11.85,0-18.3,0-30.15,0-1.46.1-2.88.9-4.27Zm9.09,14.99c.01-.09.03-.15.03-.22,0-3.86.01-7.71-.02-11.57,0-.45-.15-.93-.34-1.35-.65-1.39-2.19-2.11-3.69-1.78-1.52.34-2.61,1.64-2.62,3.21-.01,3.8,0,7.61,0,11.41,0,.1.03.19.04.29h6.6Zm-19.14,22.98c-.19-.45-.38-.81-.48-1.19-.1-.4-.29-.49-.68-.49-6.5.01-12.99,0-19.49,0-.17,0-.33,0-.57,0,.09.16.13.25.19.33.72.93,1.68,1.35,2.85,1.34,5.9,0,11.81,0,17.71,0h.46Z"/><path d="m35.71,26.41c2.35,0,4.69,0,7.04,0,.8,0,1.41.47,1.63,1.22.2.68-.05,1.44-.68,1.82-.28.17-.65.29-.98.29-4.69.02-9.38.02-14.07,0-.98,0-1.71-.73-1.72-1.65,0-.95.73-1.68,1.74-1.68,2.35,0,4.69,0,7.04,0Z"/><path d="m35.73,34.96c2.28,0,4.55,0,6.83,0,1.11,0,1.87.67,1.87,1.66,0,.99-.75,1.68-1.85,1.68-4.6,0-9.21,0-13.81,0-1.1,0-1.86-.7-1.85-1.68,0-.97.76-1.65,1.83-1.65,2.33,0,4.66,0,6.98,0Z"/><path d="m32.4,43.51c1.2,0,2.4,0,3.6,0,1.02,0,1.76.71,1.77,1.65,0,.95-.74,1.67-1.75,1.68-2.45,0-4.9,0-7.35,0-1.01,0-1.75-.73-1.74-1.68,0-.95.75-1.65,1.77-1.65,1.23,0,2.47,0,3.7,0Z"/></g></svg>