<?xml version="1.0" encoding="UTF-8"?><svg id="Calque_2" width="30" height="30" xmlns="http://www.w3.org/2000/svg" viewBox="0 0 78.33 78.33"><defs><style>.cls-1{fill:#EB8667;}</style></defs><g id="Calque_1-2"><path id="Rectangle_324" class="cls-1" d="m39.17,0h0c21.63,0,39.17,17.54,39.17,39.17h0c0,21.63-17.54,39.17-39.17,39.17h0C17.54,78.33,0,60.8,0,39.17h0C0,17.54,17.54,0,39.17,0Z"/><path d="m56.77,46.91c-.63-1.64-2.46-2.47-4.1-1.86-.01,0-.02,0-.03.01-.04.01-.07.03-.11.04-.15.06-.29.13-.42.21-.15.08-.27.15-.38.19-1.61.61-3.48-.37-4.17-2.18-.69-1.8.04-3.76,1.62-4.39l.17-.05s.1-.03.15-.05c.96-.37,1.69-1.17,1.95-2.17.28-1.05,0-2.17-.73-2.97-4.32-4.73-9.89-6.77-14.9-5.59l-3.42-8.97.62-.24c.83-.31,1.24-1.24.93-2.06s-1.24-1.24-2.06-.92l-.62.24-.4-1.04.62-.24c.83-.31,1.24-1.24.93-2.06s-1.24-1.24-2.06-.93l-.62.24-.69-1.81c-.31-.83-1.24-1.24-2.06-.92-.83.31-1.24,1.24-.93,2.06l.69,1.81-.62.24c-.83.31-1.24,1.24-.93,2.06s1.24,1.24,2.06.93l.62-.24.4,1.04-.62.24c-.83.31-1.24,1.24-.93,2.06s1.24,1.24,2.06.93l.62-.24,3.42,8.97c-4.53,2.45-7.33,7.69-7.41,14.09-.01,1.09.53,2.11,1.43,2.71.86.57,1.95.69,2.91.32.05-.02.1-.04.15-.06l.14-.06c1.6-.6,3.46.38,4.15,2.19.69,1.81-.05,3.79-1.66,4.4-.12.05-.27.09-.45.12-.18.04-.35.09-.52.15-.83.32-1.5.97-1.84,1.81-.4,1.01-.26,2.16.37,3.04,4.77,6.65,12.06,9.56,18.14,7.25,6.04-2.3,9.54-9.25,8.73-17.33-.02-.32-.09-.64-.2-.95Zm-9.67,15.29c-4.86,1.85-10.59-.81-14.4-6.12.33-.06.65-.15.97-.27,3.26-1.24,4.83-5.06,3.51-8.53-1.32-3.47-5.04-5.27-8.3-4.03-.09.04-.18.08-.27.12.06-4.86,1.98-9.07,5.36-11.11l4.53,11.89c.31.83,1.24,1.24,2.06.93s1.24-1.24.93-2.06l-4.53-11.89c3.88-.72,8.11,1.14,11.39,4.73-.09.03-.19.05-.28.09-3.26,1.24-4.83,5.06-3.51,8.53s5.04,5.27,8.3,4.03c.32-.12.62-.28.91-.45.69,6.5-1.82,12.3-6.67,14.15Z"/><path d="m46.14,50l-6.44,2.45c-.83.31-1.24,1.24-.93,2.06.31.83,1.24,1.24,2.06.93l6.44-2.45c.83-.31,1.24-1.24.93-2.06s-1.24-1.24-2.06-.93Z"/></g></svg>