<svg xmlns="http://www.w3.org/2000/svg" aria-hidden="true" width="10" height="10" viewBox="0 0 17.867 17.836">
  <path id="Tracé_209" data-name="Tracé 209" d="M374.7,193.132H364.45a2.782,2.782,0,0,1-2.78-2.779V180.107a2.784,2.784,0,0,1,2.78-2.78h7.07a.7.7,0,0,1,0,1.4h-7.07a1.381,1.381,0,0,0-1.38,1.378v10.246a1.381,1.381,0,0,0,1.38,1.378H374.7a1.379,1.379,0,0,0,1.377-1.378v-7a.7.7,0,1,1,1.4,0v7A2.782,2.782,0,0,1,374.7,193.132Zm-2.309-9.985a.7.7,0,0,1-.495-1.2l5.255-5.253H373.57a.7.7,0,0,1,0-1.4h5.267a.7.7,0,0,1,.7.7v4.9a.7.7,0,1,1-1.4,0v-3.21l-5.253,5.252A.7.7,0,0,1,372.389,183.147Z" transform="translate(-361.67 -175.296)" fill="#001b3b"/>
</svg>
