<?xml version="1.0" encoding="utf-8"?>
<!-- Generator: Adobe Illustrator 27.7.0, SVG Export Plug-In . SVG Version: 6.00 Build 0)  -->
<svg version="1.1" id="Calque_2_00000033342503240639844620000000979162248342764160_"
	 xmlns="http://www.w3.org/2000/svg" xmlns:xlink="http://www.w3.org/1999/xlink" x="0px" y="0px" viewBox="0 0 30 30"
	 style="enable-background:new 0 0 30 30;" xml:space="preserve">
<style type="text/css">
	.st0{fill-rule:evenodd;clip-rule:evenodd;}
</style>
<g id="Calque_1-2">
	<polygon points="28,19.5 28,19.5 27.9,19.5 	"/>
	<path d="M20.3,6.3h-8.2c-0.1,0-0.2,0.1-0.3,0.1l-4.2,4.3c0,0,0,0,0,0c0,0,0,0.1-0.1,0.1c0,0.1,0,0.1,0,0.2v12.1
		c0,0.3,0.3,0.6,0.6,0.6h6.6c0.3,0,0.4-0.3,0.2-0.5c-0.1-0.1-0.2-0.2-0.4-0.4c0,0,0,0-0.1,0H8.5c-0.1,0-0.1-0.1-0.1-0.1V11.6
		c0-0.1,0.1-0.1,0.1-0.1H12c0.3,0,0.6-0.3,0.6-0.6V7.4c0-0.1,0.1-0.1,0.1-0.1h7.1c0.1,0,0.1,0.1,0.1,0.1v4.2c0,0.1,0,0.1,0.1,0.1
		c0.2,0.1,0.4,0.1,0.6,0.2c0.1,0,0.2,0,0.2-0.1V6.9C20.9,6.6,20.6,6.3,20.3,6.3L20.3,6.3z M11.6,10.6H9.3c-0.1,0-0.2-0.1-0.1-0.2
		L11.5,8c0.1-0.1,0.2,0,0.2,0.1v2.4C11.7,10.5,11.7,10.6,11.6,10.6L11.6,10.6z"/>
	<path d="M12.4,20.6c0.1,0.3,0.3,0.5,0.5,0.8c0,0.1,0,0.1-0.1,0.1h-3c-0.3,0-0.6-0.2-0.6-0.6v-7.3c0-0.2,0.1-0.4,0.3-0.5
		c0,0,0.1,0,0.1,0h3.6c0.1,0,0.1,0.1,0.1,0.2c-0.2,0.2-0.4,0.5-0.6,0.8c0,0,0,0-0.1,0h-2.4c0,0-0.1,0-0.1,0.1V15c0,0,0,0.1,0.1,0.1
		H12c0.1,0,0.1,0.1,0.1,0.1c-0.1,0.2-0.2,0.5-0.3,0.8c0,0,0,0.1-0.1,0.1h-1.4c0,0-0.1,0-0.1,0.1v0.8c0,0,0,0.1,0.1,0.1h1.2
		c0.1,0,0.1,0,0.1,0.1c0,0.2,0,0.3,0,0.5c0,0.1,0,0.2,0,0.4h-1.3c0,0-0.1,0-0.1,0.1v0.6c0,0,0,0.1,0.1,0.1h1.4c0,0,0.1,0,0.1,0.1
		c0.1,0.3,0.1,0.5,0.2,0.8c0,0.1,0,0.1-0.1,0.1h-1.5c0,0-0.1,0-0.1,0.1v0.6c0,0,0,0.1,0.1,0.1L12.4,20.6
		C12.3,20.6,12.4,20.6,12.4,20.6L12.4,20.6z"/>
	<path class="st0" d="M17.8,12.9c2.6,0,4.7,2.1,4.7,4.7s-2.1,4.7-4.7,4.7s-4.7-2.1-4.7-4.7S15.2,12.9,17.8,12.9z M17.8,14.1
		c-2,0-3.6,1.6-3.6,3.6s1.6,3.6,3.6,3.6s3.6-1.6,3.6-3.6S19.8,14.1,17.8,14.1z M17.8,17c0.3,0,0.6,0.3,0.6,0.6s-0.3,0.6-0.6,0.6
		s-0.6-0.3-0.6-0.6S17.5,17,17.8,17z M19.6,17c0.3,0,0.6,0.3,0.6,0.6s-0.3,0.6-0.6,0.6S19,18,19,17.6S19.3,17,19.6,17z M16,17
		c0.3,0,0.6,0.3,0.6,0.6s-0.3,0.6-0.6,0.6s-0.6-0.3-0.6-0.6S15.7,17,16,17z"/>
</g>
</svg>
