<?xml version="1.0" encoding="utf-8"?>
<!-- Generator: Adobe Illustrator 27.7.0, SVG Export Plug-In . SVG Version: 6.00 Build 0)  -->
<svg version="1.1" id="Calque_2_00000144300709049848803040000002614583124418680197_"
	 xmlns="http://www.w3.org/2000/svg" xmlns:xlink="http://www.w3.org/1999/xlink" x="0px" y="0px" viewBox="0 0 30 30"
	 style="enable-background:new 0 0 30 30;" xml:space="preserve">
<g id="Calque_1-2">
	<path d="M7.8,20.4v-0.3c0-4.4,0-6.6,0-11c0-1.4,0.9-2.4,2.2-2.6c0.1,0,0.3,0,0.4,0c3.7,0,7.4,0,11.1,0c1.4,0,2.6,1.1,2.6,2.5
		c0,1.7,0,3.4,0,5.1c0,0.4-0.3,0.7-0.7,0.7c-1,0-1.9,0-2.9,0c-0.1,0-0.1,0-0.2,0V15c0,2.7,0,3.2,0,5.9c0,1.6-1.1,2.7-2.7,2.7
		c-3,0-6.1,0-9.1,0c-1.4,0-2.4-0.9-2.6-2.3c0-0.1,0-0.2,0-0.3c0-0.4,0.3-0.7,0.6-0.7C7,20.4,7.4,20.4,7.8,20.4z M19.3,7.7
		c-0.1,0-0.2,0-0.2,0c-2.9,0-5.7,0-8.6,0c-0.9,0-1.4,0.5-1.4,1.4c0,4.4,0,6.7,0,11c0,0.1,0,0.1,0,0.2c0.1,0,0.2,0,0.3,0
		c2.1,0,4.2,0,6.3,0c0.5,0,0.7,0.2,0.8,0.7c0,0.8,0.8,1.3,1.5,1.2c0.6-0.1,1-0.6,1-1.3c0-4.5,0-7,0-11.5C19,8.8,19,8.3,19.3,7.7z
		 M22.8,13.5C22.8,13.4,22.8,13.4,22.8,13.5c0-1.6,0-3,0-4.5c0-0.2-0.1-0.4-0.1-0.5c-0.2-0.5-0.8-0.8-1.4-0.7c-0.6,0.1-1,0.6-1,1.2
		c0,1.5,0,2.9,0,4.4c0,0,0,0.1,0,0.1L22.8,13.5L22.8,13.5z M15.5,22.3c-0.1-0.2-0.1-0.3-0.2-0.5c0-0.2-0.1-0.2-0.3-0.2
		c-2.5,0-5,0-7.5,0c-0.1,0-0.1,0-0.2,0c0,0.1,0,0.1,0.1,0.1c0.3,0.4,0.6,0.5,1.1,0.5c2.3,0,4.5,0,6.8,0L15.5,22.3L15.5,22.3z"/>
	<path d="M13.7,10.1c0.9,0,1.8,0,2.7,0c0.3,0,0.5,0.2,0.6,0.5c0.1,0.3,0,0.6-0.3,0.7c-0.1,0.1-0.2,0.1-0.4,0.1c-1.8,0-3.6,0-5.4,0
		c-0.4,0-0.7-0.3-0.7-0.6c0-0.4,0.3-0.6,0.7-0.6C11.9,10.1,12.8,10.1,13.7,10.1z"/>
	<path d="M13.7,13.4c0.9,0,1.7,0,2.6,0c0.4,0,0.7,0.3,0.7,0.6s-0.3,0.6-0.7,0.6c-1.8,0-3.5,0-5.3,0c-0.4,0-0.7-0.3-0.7-0.6
		c0-0.4,0.3-0.6,0.7-0.6C11.9,13.4,12.8,13.4,13.7,13.4L13.7,13.4z"/>
	<path d="M12.4,16.7c0.5,0,0.9,0,1.4,0c0.4,0,0.7,0.3,0.7,0.6c0,0.4-0.3,0.6-0.7,0.6c-0.9,0-1.9,0-2.8,0c-0.4,0-0.7-0.3-0.7-0.6
		c0-0.4,0.3-0.6,0.7-0.6C11.5,16.7,11.9,16.7,12.4,16.7z"/>
</g>
</svg>
