<?xml version="1.0" encoding="utf-8"?>
<!-- Generator: Adobe Illustrator 27.7.0, SVG Export Plug-In . SVG Version: 6.00 Build 0)  -->
<svg version="1.1" id="Calque_2_00000054268188151410988870000008748305804644331918_"
	 xmlns="http://www.w3.org/2000/svg" xmlns:xlink="http://www.w3.org/1999/xlink" x="0px" y="0px" viewBox="0 0 30 30"
	 style="enable-background:new 0 0 30 30;" xml:space="preserve">
<style type="text/css">
	.st0{stroke:#000000;stroke-width:0.1915;stroke-miterlimit:3.83;}
</style>
<g id="Calque_1-2">
	<path class="st0" d="M16.4,21.8v0.7c0.1,0,0.2,0,0.2,0c0.7,0,1.4,0,2.1,0c0.8,0,1.4,0.6,1.4,1.4c0,0.8-0.6,1.4-1.4,1.4
		c-2.2,0-4.5,0-6.7,0c-0.8,0-1.4-0.6-1.4-1.4c0-0.8,0.6-1.4,1.4-1.4c0.8,0,1.5,0,2.3,0v-0.7c-0.3,0-0.6,0-0.9,0
		c-0.1,0-0.3-0.1-0.4-0.2c-0.5-0.5-1.1-1-1.6-1.6c-0.8-0.8-0.8-1.8,0-2.6c0.1-0.1,0.1-0.1,0.2-0.2c0.5-0.5,0.5-1.3,0-1.8
		c-0.2-0.2-0.4-0.4-0.7-0.7c-0.1-0.1-0.2-0.1-0.3-0.1c-0.4,0-0.9,0-1.3,0c-0.6,0-1.1-0.4-1.1-1.1c0-0.7,0-1.3,0-2
		c0-1.9,1.4-3.5,3.2-3.7c0.1,0,0.2-0.1,0.2-0.2c0.2-1.1,1.2-1.8,2.3-1.9c0.8,0,1.5-0.3,2.1-0.9c0.1-0.1,0.2-0.1,0.4-0.1
		c1.1,0,2.2,0,3.2,0c0.1,0,0.3,0.1,0.4,0.2c0.4,0.4,0.9,0.8,1.3,1.3c0.6,0.6,0.6,1.3,0,1.9c-0.2,0.3-0.5,0.5-0.7,0.8
		c-0.1,0.1-0.1,0.2-0.1,0.3c0.2,0.8,0.4,1.6,0.6,2.4c0.2,1.1,0.2,2.3-0.1,3.4c-0.1,0.6-0.3,1.2-0.4,1.8c-0.2,0.7-0.1,1.3-0.1,2
		c0,0.5-0.2,1-0.6,1.3c-0.5,0.4-1,0.9-1.4,1.4c-0.1,0.2-0.3,0.3-0.5,0.3C17.5,21.8,16.9,21.8,16.4,21.8L16.4,21.8z M19.3,19.8
		c0.2-0.2,0.5-0.7,0.5-1.2c0-0.1,0-0.2,0-0.2c0-0.7,0.1-1.4,0.2-2c0.1-0.5,0.2-1,0.4-1.5c-1,0.8-2,1.2-3.3,1.2
		c-0.1,0-0.2-0.1-0.2-0.2v-0.2c0-0.1,0.1-0.2,0.2-0.2l0,0c1.3,0,2.3-0.5,3.3-1.5c0.1-0.1,0.2-0.2,0.2-0.4c0-0.6,0-1.2-0.1-1.8
		c-0.2-0.9-0.4-1.8-0.7-2.7c0-0.2,0-0.3,0.1-0.5c0.3-0.3,0.6-0.6,0.9-0.9c0.3-0.3,0.3-0.7,0-1c-0.4-0.4-0.7-0.7-1.1-1.1l0,0
		c-0.1-0.1-0.3,0-0.3,0.1c-0.2,1.2-0.9,1.8-2.2,1.8c-0.5,0-0.9,0.2-1.3,0.6c-0.4,0.4-0.7,0.7-1.1,1.1c-0.1,0.1-0.1,0.2-0.1,0.3
		c0.2,0.7,0.4,1.4,0.5,2.2l0,0c0,0.1,0,0.3-0.2,0.3l-0.2,0c-0.1,0-0.3,0-0.3-0.2c-0.2-0.7-0.3-1.4-0.5-2.1c-0.5,0.2-1,0.2-1.5,0
		c-0.5-0.2-0.8-0.6-0.9-1.2C10.4,8.6,9.3,9.6,9,10.9c-0.2,0.9-0.1,1.9-0.1,2.8C8.9,13.8,9,14,9.2,14c0.5,0,0.9,0,1.4,0
		c0.1-0.8,0-1.6-0.2-2.3c0-0.2,0-0.3,0.2-0.4h0c0.2-0.1,0.4,0.1,0.4,0.2c0.1,0.6,0.3,1.8,0.3,2.5c0,0.2,0,0.3,0.2,0.4
		c0.2,0.1,0.3,0.3,0.5,0.5c0.1,0.1,0.2,0.2,0.4,0.2c0.9,0,1.6-0.4,2.1-1.2c0.1-0.1,0.1-0.3,0.2-0.4c0-0.1,0.2-0.2,0.3-0.1l0.2,0.1
		c0.1,0,0.2,0.2,0.1,0.3c-0.5,1.1-1.2,1.7-2.3,2c-0.2,0-0.3,0.2-0.3,0.4c0,0.2,0,0.4,0,0.6c0,0.2,0,0.2,0.2,0.3
		c0.9,0.6,1.7,0.7,2.6,0c0.1-0.1,0.1-0.1,0.2-0.2c0.1-0.1,0.3-0.1,0.4,0h0c0.1,0.1,0.1,0.4,0,0.5c-0.4,0.4-0.6,0.5-1.2,0.6
		c-0.9,0.2-1.8,0-2.6-0.5c-0.2,0.1-0.3,0.3-0.4,0.4c-0.5,0.5-0.5,1.2,0,1.7c0.5,0.5,0.9,1,1.4,1.4c0.1,0.1,0.2,0.1,0.3,0.1
		c1.3,0,2.6,0,3.9,0h0.1C17.7,21.1,19.1,19.9,19.3,19.8L19.3,19.8z M15.4,23.2c-1.1,0-2.3,0-3.4,0c-0.4,0-0.7,0.3-0.7,0.7
		c0,0.4,0.3,0.7,0.7,0.7c2.3,0,4.5,0,6.8,0c0.1,0,0.3,0,0.4-0.1c0.3-0.2,0.4-0.5,0.3-0.7c-0.1-0.3-0.3-0.5-0.7-0.5
		C17.6,23.2,16.5,23.2,15.4,23.2L15.4,23.2z M18.8,5.5c-0.7,0-1.4,0-2.2,0c-0.1,0-0.1,0-0.2,0.1c-0.7,0.6-1.5,0.9-2.5,0.9
		c-0.9,0-1.6,0.7-1.6,1.6c-0.1,0.6,0.3,1.1,0.9,1.2c0.5,0.1,0.8-0.1,1.2-0.4c0.3-0.3,0.6-0.6,0.9-0.9c0.6-0.7,1.3-1,2.2-1
		C18.2,6.8,18.8,6.2,18.8,5.5L18.8,5.5z M15,21.8v0.7h0.7v-0.7H15z"/>
	<path class="st0" d="M15.4,12.6L15.4,12.6c0.1-0.2,0.3-0.2,0.4-0.2c1,0.4,1.9,0.2,2.6-0.6c0.7-0.8,0.7-1.7,0.3-2.5
		c-0.1-0.2,0-0.3,0.1-0.4h0c0.2-0.1,0.4-0.1,0.5,0.1c0.5,0.9,0.5,2.2-0.2,3.2c-0.8,1-2.3,1.4-3.5,0.9C15.4,13,15.3,12.8,15.4,12.6
		L15.4,12.6z"/>
	<path d="M17.3,10.7L17.3,10.7c0.2,0,0.3,0.1,0.3,0.3v0c0,0.2-0.1,0.3-0.3,0.3h0c-0.2,0-0.3-0.1-0.3-0.3v0
		C17,10.9,17.2,10.7,17.3,10.7z"/>
	<path d="M12.9,13.1L12.9,13.1c0.2,0,0.3,0.1,0.3,0.3l0,0c0,0.2-0.1,0.3-0.3,0.3l0,0c-0.2,0-0.3-0.1-0.3-0.3l0,0
		C12.6,13.2,12.8,13.1,12.9,13.1z"/>
	<path d="M15.5,18.8L15.5,18.8c0.2,0,0.3,0.1,0.3,0.3v0c0,0.2-0.1,0.3-0.3,0.3h0c-0.2,0-0.3-0.1-0.3-0.3v0
		C15.2,19,15.4,18.8,15.5,18.8z"/>
</g>
</svg>
