<?xml version="1.0" encoding="UTF-8"?><svg xmlns="http://www.w3.org/2000/svg" viewBox="0 0 52.6 46.49" width='50' height='50'><g id="Calque_1-2"><path d="M50.7,31.89c.3-1.5,.4-3,.4-4.5,0-7.3-3.1-14.1-8.6-18.8,.1-.5,.1-1.1,0-1.6-.2-1.1-.8-2-1.7-2.7-8.8-5.7-20.3-5.7-29.1-.1-1,.6-1.6,1.6-1.8,2.8-.1,.5,0,1,.1,1.5C4.5,13.19,1.4,20.09,1.4,27.39c0,1.5,.1,3,.4,4.5-1.1,1.1-1.8,2.7-1.8,4.3,0,2.8,1.9,5.2,4.7,5.9,.7,2.6,3.1,4.4,5.7,4.4h0c1.6,0,3-.6,4.1-1.7s1.7-2.6,1.8-4.3v-8.7c0-3.2-2.6-5.9-5.9-5.9-2.6,0-4.8,1.7-5.6,4.1-.1-.9-.2-1.7-.2-2.6,0-6.3,2.6-12.2,7.3-16.3,.6,.4,1.3,.6,2,.5,.7,0,1.5-.2,2.1-.6,6.2-3.9,14.3-4,20.6,0,1.3,.8,2.8,.8,4.1,.1,4.7,4.1,7.4,10.1,7.4,16.3,0,.9-.1,1.7-.2,2.6-.8-2.4-3.1-4.1-5.6-4.1-1.6,0-3.1,.6-4.2,1.7s-1.7,2.6-1.8,4.1v8.8c0,2.9,2,5.3,4.9,5.8,0,0,.5,.1,1.2,.1,.4,0,1.3-.1,1.3-.1,2.1-.5,3.8-2.1,4.3-4.2,2.7-.7,4.6-3.1,4.6-5.9-.1-1.6-.8-3.2-1.9-4.3Zm-1.4,4.2c0,1-.5,1.8-1.3,2.4v-4.7c.8,.5,1.3,1.4,1.3,2.3ZM39.2,7.89h0c-.3,.3-.7,.4-1.1,.2-7.3-4.5-16.7-4.5-24,0-.4,.2-.8,.1-1.1-.2-.1-.2-.2-.4-.1-.6,.1-.3,.2-.5,.3-.6,3.9-2.4,8.3-3.6,12.9-3.6h.1c4.5,0,9,1.3,12.8,3.7,.2,.1,.3,.3,.3,.6,.1,.2,0,.4-.1,.5ZM2.9,36.29c0-.9,.5-1.9,1.3-2.5v4.8c-.8-.6-1.3-1.4-1.3-2.3Zm7.3-7.3c1.5-.1,2.7,1.2,2.8,2.8v8.7c0,.7-.3,1.4-.8,1.9s-1.2,.8-1.9,.8h-.2c-.7,0-1.4-.3-1.9-.8s-.8-1.2-.8-2v-8.7c0-.7,.3-1.4,.8-1.9s1.2-.8,1.9-.8h.1Zm31.9,0h0c1.5,0,2.8,1.2,2.8,2.8v8.7c0,.7-.3,1.4-.8,2-.5,.5-1.2,.8-2,.8h0c-1.5,0-2.8-1.2-2.8-2.8v-8.7c0-.7,.3-1.4,.8-2,.6-.5,1.3-.8,2-.8Z"/></g></svg>