<?xml version="1.0" encoding="utf-8"?>
<!-- Generator: Adobe Illustrator 27.7.0, SVG Export Plug-In . SVG Version: 6.00 Build 0)  -->
<svg version="1.1" id="Calque_2_00000025403734434308641770000016202060886405649818_"
	 xmlns="http://www.w3.org/2000/svg" xmlns:xlink="http://www.w3.org/1999/xlink" x="0px" y="0px" viewBox="0 0 34 34"
	 style="enable-background:new 0 0 34 34;" xml:space="preserve">
<style type="text/css">
	.st0{fill:#FFFFFF;}
</style>
<path class="st0" d="M33.3,29.5c0,0-0.1-0.1-0.1-0.1c-2.9-2.9-5.8-5.8-8.7-8.7c0.5-0.8,0.9-1.6,1.3-2.4c0.4-1.1,0.7-2.1,0.8-3.3
	c0.1-1,0.2-2.1,0-3c-0.1-1.2-0.4-2.3-0.8-3.4c-0.6-1.5-1.5-2.9-2.5-4.1c-1.2-1.3-2.6-2.4-4.2-3.1c-1.3-0.6-2.5-1-3.8-1.2
	c-0.2,0-0.4-0.1-0.5-0.1L14.3,0c-0.1,0-0.2,0-0.3,0h-1.3c-0.1,0-0.2,0-0.4,0c-0.1,0-0.3,0.1-0.4,0.1c-0.2,0-0.3,0.1-0.4,0.1
	c-1.2,0.1-2.2,0.5-2.9,0.7c-1.3,0.5-2.5,1.2-3.5,2C3.4,4.2,2.1,5.9,1.2,7.8c-0.5,1.1-0.8,2.2-1,3.3c0,0.2-0.1,0.4-0.1,0.6l0,0.2
	c0,0.1,0,0.3,0,0.4v2c0,0.2,0,0.4,0.1,0.6l0,0.1c0,0.3,0.1,0.7,0.2,1c0.3,1.4,0.8,2.7,1.5,3.9c0.8,1.4,1.8,2.6,3,3.6
	c1.1,0.9,2.4,1.7,3.7,2.2c1.5,0.6,3,0.9,4.6,0.9c0.7,0,1.3-0.1,1.9-0.1l0.4,0c1.1-0.1,2.1-0.4,3.4-1c0.7-0.3,1.4-0.7,2-1.1
	c1.6,1.6,3.2,3.2,4.8,4.8l3.8,3.8l0.1,0.1c0.4,0.4,0.9,0.7,1.4,0.7c0,0,0.1,0,0.1,0c0.5,0,1-0.2,1.4-0.6l1-1
	c0.4-0.4,0.6-0.9,0.6-1.5C34,30.4,33.7,29.8,33.3,29.5z M19.1,18.7c-1.6,1.7-3.5,2.5-5.9,2.6c-1.9,0-3.6-0.7-5.1-2
	c-1.7-1.5-2.6-3.3-2.7-5.5c-0.1-2.3,0.7-4.4,2.3-6c1.3-1.3,2.9-2.1,4.7-2.2c0.3,0,0.6,0,0.9,0c2.3,0,4.2,0.8,5.8,2.5
	c1.2,1.3,1.9,2.9,2.1,4.7C21.4,15.1,20.7,17.1,19.1,18.7z"/>
</svg>
